<?xml version="1.0" encoding="utf-8"?>
<!-- Generator: Adobe Illustrator 25.4.1, SVG Export Plug-In . SVG Version: 6.00 Build 0)  -->
<svg version="1.1" id="Layer_1" xmlns="http://www.w3.org/2000/svg" xmlns:xlink="http://www.w3.org/1999/xlink" x="0px" y="0px"
	 viewBox="0 0 264 77" style="enable-background:new 0 0 264 77;" xml:space="preserve">
<style type="text/css">
	.st0{fill:#00B9C5;}
	.st1{fill:#404041;}
</style>
<path class="st0" d="M71.3,34.4C71.3,18,58,4.7,41.6,4.7C25.1,4.7,11.8,18,11.8,34.4c0,9,4,17,10.2,22.4L11.8,72.7h10.1l7.2-11.2
	c3.8,1.7,8,2.7,12.4,2.7c4.4,0,8.6-1,12.4-2.7l7.2,11.2h10.1L61.1,56.9C67.4,51.4,71.3,43.4,71.3,34.4 M41.6,55.7
	c-11.7,0-21.3-9.5-21.3-21.3c0-11.7,9.5-21.3,21.3-21.3c11.7,0,21.3,9.5,21.3,21.3C62.8,46.2,53.3,55.7,41.6,55.7"/>
<path class="st0" d="M31.5,42.2c2.3,3,6,4.9,10.1,4.9c4.1,0,7.8-1.9,10.1-5L41.6,26.6L31.5,42.2z"/>
<path class="st1" d="M94,31.2h1.1l4.9,8l0,0.1h5l-5.4-8.5c2.6-0.9,4-3,4-5.8c0-4.1-2.9-6.9-7.3-6.9h-7.1v21.3H94V31.2z M94,22h2.3
	c1.8,0,3,1.1,3,2.7c0,1.6-1.1,2.6-3,2.6H94V22z"/>
<polygon class="st1" points="124,34.9 115.8,34.9 115.8,30.4 123,30.4 123,26.4 115.8,26.4 115.8,22.2 123.9,22.2 123.9,17.9 
	111.2,17.9 111.2,39.2 124,39.2 "/>
<path class="st1" d="M135.8,30.2c2.3,0.9,3.6,1.5,3.6,2.8c0,1.5-1,2.5-2.6,2.5c-2.5,0-5.3-1.9-6.4-2.7l-0.2-0.1v5.1l0.1,0
	c1.6,1,3.7,2.1,6.5,2.1c4.4,0,7.3-2.6,7.3-6.7c0-4-3.5-5.7-6.2-6.5c-2-0.7-3.2-1.2-3.2-2.6c0-1.3,1-2.2,2.7-2.2c1.8,0,4,0.8,5.4,2
	l0.2,0.2v-4.8l-0.1,0c-1.8-1-3.7-1.5-5.6-1.5c-4.3,0-7.1,2.5-7.1,6.3C130.1,27.4,132.3,28.9,135.8,30.2"/>
<polygon class="st1" points="163.6,34.9 155.4,34.9 155.4,30.4 162.6,30.4 162.6,26.4 155.4,26.4 155.4,22.2 163.5,22.2 163.5,17.9 
	150.8,17.9 150.8,39.2 163.6,39.2 "/>
<path class="st1" d="M181.5,17.9h-3.8L169.3,39l-0.1,0.2h4.9l1.6-4.3h7.6l1.6,4.3h5.1L181.5,17.9L181.5,17.9z M181.8,31h-4.7
	l2.4-6.4L181.8,31z"/>
<path class="st1" d="M200.9,31.2h1.1l4.9,8l0,0.1h5l-5.4-8.5c2.6-0.9,4-3,4-5.8c0-4.1-2.9-6.9-7.3-6.9h-7.1v21.3h4.6V31.2z
	 M200.9,22h2.3c1.8,0,3,1.1,3,2.7c0,1.6-1.1,2.6-3,2.6h-2.3V22z"/>
<path class="st1" d="M233.6,38.1L233.6,38.1l0.2-5l-0.2,0.2c-1.3,1.3-3.5,2.1-5.4,2.1c-3.7,0-6.7-3-6.7-6.8c0-3.8,2.9-6.8,6.7-6.8
	c2.2,0,4.1,1,5.1,1.8l0.2,0.2V19l-0.1,0c-1.6-1-3.6-1.6-5.4-1.6c-6.3,0-11.2,4.9-11.2,11.1c0,6.2,4.9,11.2,11,11.2
	C229.8,39.7,231.8,39.1,233.6,38.1"/>
<polygon class="st1" points="253.8,17.9 253.8,26.4 245.4,26.4 245.4,17.9 240.8,17.9 240.8,39.2 245.4,39.2 245.4,30.7 253.8,30.7 
	253.8,39.2 258.4,39.2 258.4,17.9 "/>
<path class="st1" d="M100.6,46.7h-3.8l-8.4,21.1l-0.1,0.2h4.9l1.6-4.3h7.6l1.6,4.3h5.1L100.6,46.7L100.6,46.7z M101,59.7h-4.7
	l2.4-6.4L101,59.7z"/>
<path class="st1" d="M121.8,46.7h-6.3v21.3h6.4c6.8,0,11-4.1,11-10.7C132.8,50.8,128.5,46.7,121.8,46.7 M120.1,51h1.6
	c4.2,0,6.5,2.2,6.5,6.3c0,4-2.3,6.2-6.5,6.2h-1.6V51z"/>
<polygon class="st1" points="147.3,61.3 142,46.7 141.9,46.7 136.8,46.7 145.1,67.8 145.2,67.9 149.2,67.9 157.5,46.8 157.6,46.7 
	152.6,46.7 "/>
<rect x="163.9" y="46.7" class="st1" width="4.6" height="21.3"/>
<path class="st1" d="M183.5,55.2c-2.1-0.7-3.3-1.2-3.3-2.6c0-1.3,1.1-2.2,2.7-2.2c1.8,0,4.1,0.8,5.5,2l0.2,0.2v-4.8l-0.1,0
	c-1.9-1-3.8-1.5-5.7-1.5c-4.4,0-7.4,2.5-7.4,6.3c0,3.7,2.2,5.2,5.9,6.5c2.4,0.9,3.7,1.5,3.7,2.8c0,1.5-1,2.5-2.7,2.5
	c-2.6,0-5.5-1.9-6.6-2.7l-0.2-0.1v5.1l0.1,0c1.7,1,3.8,2.1,6.7,2.1c4.6,0,7.5-2.6,7.5-6.7C189.9,57.7,186.3,56.1,183.5,55.2"/>
<path class="st1" d="M206.9,46.1c-6.3,0-11.2,4.9-11.2,11.1c0,6.3,4.9,11.2,11.2,11.2c6.3,0,11.2-4.9,11.2-11.2
	C218,51,213.1,46.1,206.9,46.1 M206.9,64.1c-3.7,0-6.6-3-6.6-6.8c0-3.7,3-6.8,6.6-6.8c3.6,0,6.6,3,6.6,6.8
	C213.4,61.1,210.5,64.1,206.9,64.1"/>
<path class="st1" d="M240,53.5c0-4.1-2.9-6.9-7.3-6.9h-7.1v21.3h4.6v-8h1.1l4.9,8l0,0.1h5l-5.4-8.5C238.6,58.5,240,56.4,240,53.5
	 M230.3,50.7h2.3c1.8,0,3,1.1,3,2.7c0,1.6-1.1,2.6-3,2.7h-2.3V50.7z"/>
</svg>
