<?xml version="1.0" encoding="utf-8"?>
<!-- Generator: Adobe Illustrator 25.4.1, SVG Export Plug-In . SVG Version: 6.00 Build 0)  -->
<svg version="1.1" id="Layer_1" xmlns="http://www.w3.org/2000/svg" xmlns:xlink="http://www.w3.org/1999/xlink" x="0px" y="0px"
	 viewBox="0 0 84 92" style="enable-background:new 0 0 84 92;" xml:space="preserve">
<style type="text/css">
	.st0{fill:#00B9C5;}
</style>
<g>
	<path class="st0" d="M73.9,38.7C73.9,22.3,60.5,9,44.1,9C27.7,9,14.3,22.3,14.3,38.7c0,9,4,17,10.2,22.4L14.3,77h10.1l7.2-11.2
		c3.8,1.7,8,2.7,12.4,2.7c4.4,0,8.6-1,12.4-2.7L63.8,77h10.1L63.7,61.2C69.9,55.7,73.9,47.7,73.9,38.7 M44.1,60
		c-11.7,0-21.3-9.5-21.3-21.3c0-11.7,9.5-21.3,21.3-21.3c11.7,0,21.3,9.5,21.3,21.3C65.4,50.5,55.8,60,44.1,60"/>
	<path class="st0" d="M34,46.5c2.3,3,6,4.9,10.1,4.9c4.1,0,7.8-1.9,10.1-5L44.1,30.9L34,46.5z"/>
</g>
</svg>
